<?xml version="1.0" encoding="utf-8"?>
<!-- Generator: Adobe Illustrator 19.1.0, SVG Export Plug-In . SVG Version: 6.00 Build 0)  -->
<svg version="1.1" id="Layer_1" xmlns="http://www.w3.org/2000/svg" xmlns:xlink="http://www.w3.org/1999/xlink" x="0px" y="0px"
	 viewBox="-181 -61.3 464.8 437.3" style="enable-background:new -181 -61.3 464.8 437.3;" xml:space="preserve">
<style type="text/css">
	.st0{fill:#5A5E5B;}
	.st1{fill:#FFFFFF;}
	.st2{fill:#39B54A;}
</style>
<circle class="st0" cx="-18.5" cy="191.2" r="44.5"/>
<ellipse class="st0" cx="196.5" cy="196.7" rx="45.5" ry="46"/>
<ellipse class="st0" cx="87.5" cy="191.2" rx="42.5" ry="57.5"/>
<path class="st0" d="M182.3,87.7c0.3-2.4,0.4-4.8,0.3-7.2l-2.2-38.9c-1.1-20-18.3-35.3-38.3-34.1l-9.6,0.6
	c0.3-9.7,1.4-19.3,3.7-28.7c1.6-6.5,5.8-15.7,12.5-18.8c3.4-1.5,8.1,0.8,11.8-1.2c3.8-2,5-6.5,6-10.4c2.3-8.4,4.1-18.4,0.9-26.8
	c-1.5-4.1-5.2-7.7-9.4-9.1c0,0-43.3-14.5-40.1,95.8l-16.2,0.8l-5.2-51.5c-0.6-6.1-6-10.5-12.1-9.9c-6.1,0.6-10.5,6-9.9,12.1
	l5.1,50.7c-19,2.1-33.3,18.8-32.1,38.1l1.2,21.6c-86.9,10.1-154.9,59-165.9,120.3l-30.3,3.7c-0.5-0.5-1.1-1-1.6-1.4
	c3.6-14.2,6.2-36.4-0.4-48.2c-3.6-6.4-9.6-9.4-17.2-8.4c-7.8,1-11.3,5.1-12.8,8.5c-5.7,12.6,6.1,35.9,14,49.3
	c-0.5,0.4-0.9,0.9-1.3,1.4c-2.1,2.7-3.1,6.1-2.6,9.6c0.4,3.7,2.4,6.9,5.3,8.9c-3.5,14.2-6,35.9,0.6,47.6c3.2,5.7,8.2,8.6,14.5,8.6
	c0.9,0,1.8-0.1,2.7-0.2c7.8-1,11.2-5.1,12.8-8.5c5.6-12.5-5.8-35.4-13.8-48.9c0.4-0.4,0.7-0.7,1-1.1c0.3-0.4,0.6-0.8,0.9-1.3
	l26.8-3.3c0,0.4,0,0.8,0,1.3c0,77.2,89.8,139.8,200.6,139.8s200.5-62.6,200.5-139.8C282.5,157,242.2,111.8,182.3,87.7z M87,155.2
	c21.1,0,38.2,17.1,38.2,38.2s-17.1,38.2-38.2,38.2s-38.2-17.1-38.2-38.2C48.7,172.3,65.9,155.2,87,155.2z M-55.4,193.4
	c0-21.1,17.1-38.2,38.2-38.2S21,172.3,21,193.4s-17.1,38.2-38.2,38.2S-55.4,214.5-55.4,193.4z M190.2,231.6
	c-21.1,0-38.2-17.1-38.2-38.2s17.1-38.2,38.2-38.2s38.2,17.1,38.2,38.2S211.3,231.6,190.2,231.6z"/>
<g>
	<path class="st1" d="M-56.2,189.4l0.3,0.9c0,0.3-0.3,0.9-0.9,0.9c-0.6,0-0.6-0.3-1.4-1.7c-4.8-8.8-11.7-13.1-20.2-13.1
		c-13.4,0-21.3,8.8-21.3,23.3c0,16.2,9.7,27.9,23,27.9c4.6,0,8.8-1.4,12.8-3.7c3.1-2,5.7-4.6,6.8-7.1c0.9-2,1.1-2,1.4-2
		s0.6,0.3,0.6,0.9c0,0.3,0,0.3-0.3,1.4l-0.9,4.8c-0.3,1.7-0.3,1.7-1.7,2.6c-5.7,4-12.8,6-19.9,6c-8,0-14.8-2.3-19.3-6.3
		c-5.7-4.8-9.1-12.8-9.1-21.3c0-16.5,11.9-28.5,28.5-28.5c5.1,0,11.1,1.4,15.1,3.7c2,1.1,2.6,1.4,2.8,1.4s0.3,0,0.6-0.3
		c0.6-0.3,0.9-0.6,1.1-0.6s0.6,0.3,0.9,1.4L-56.2,189.4z"/>
	<path class="st1" d="M-12.7,200.2c2.6,0,2.8-0.3,2.6-2.8v-12.2c0.3-5.1-1.1-7.1-4.8-8c-0.9-0.3-1.1-0.3-1.1-0.9
		c0-0.3,0.3-0.9,0.9-0.9c0.6,0,1.4,0,2.6,0.3c0.9,0,4.6,0.3,5.4,0.3c1.7,0,5.4-0.3,6-0.3s1.1-0.3,1.4-0.3c0.6,0,0.9,0.3,0.9,0.9
		c0,0.6,0,0.6-2.6,1.1c-2,0.9-3.1,2.8-2.8,6.8V221c-0.3,5.1,1.4,7.4,5.7,8c0.9,0,1.4,0.3,1.4,0.9c0,0.6-0.6,0.9-1.1,0.9
		c-0.3,0-1.1,0-2-0.3c-0.9-0.6-1.4-0.6-6.8-0.6h-2.8c-0.9,0-1.7,0-2,0l-2.3,0.6h-0.3c-0.6,0-0.9-0.3-0.9-0.9c0-0.6,0.3-0.9,1.4-0.9
		c3.4-0.9,4.3-2.3,4.3-8.3v-14.5c0-2.6,0-2.6-2.8-2.6h-23c-3.1,0-3.4,0.3-3.4,2.8V219c-0.3,6.8,1.1,8.8,6,9.4
		c0.9,0.3,1.4,0.6,1.4,0.9c0,0.6-0.6,0.9-1.1,0.9c-0.3,0-1.1,0-2-0.3c-0.3,0-5.4,0-8,0c-1.4,0-4.3,0-5.1,0.3c-1.1,0-2.3,0.3-2.6,0.3
		c-0.6,0-0.9-0.3-0.9-0.9c0-0.9,0.3-0.9,2.8-1.4c2.3-0.9,3.1-3.4,2.8-10.5v-32.2c0.3-6-1.4-8.3-6-8.5c-0.9-0.3-1.1-0.3-1.1-0.9
		c0-0.6,0.3-0.9,1.1-0.9c0.6,0,1.4,0,2.3,0.3c0.6,0,6.5,0.3,7.4,0.3c1.4,0,4-0.3,5.1-0.3c0.9,0,1.4-0.3,1.7-0.3
		c0.6,0,1.1,0.3,1.1,0.9c0,0.6-0.3,0.6-2.6,1.4c-2.6,1.1-3.1,2.6-2.8,6.8v12.8c0,2.8,0.3,3.1,3.4,3.1H-12.7z"/>
	<path class="st1" d="M53.6,187.4c0.3-8-1.4-11.1-6.3-11.4c-0.9,0-1.1-0.3-1.1-0.9c0-0.6,0.3-0.9,0.9-0.9c0.3,0,1.4,0.3,2.6,0.3
		c1.1,0.3,2,0.3,3.4,0.3h5.4c0.9,0,1.4-0.3,1.7-0.3c0.6,0,0.9,0.3,0.9,0.9c0,0.6,0,0.6-2.3,1.4c-2,0.9-2.6,3.4-2.6,10.2v18.2
		c0,6.8-1.7,12.8-4.3,16.5c-3.7,4.8-10.8,8-18.8,8c-8.8,0-16.5-3.7-19.6-9.7c-1.7-2.8-2.8-8.5-2.8-13.4v-19.9c0-8-0.9-9.4-6-10.2
		c-0.9-0.3-1.1-0.3-1.1-0.9c0-0.6,0.6-0.9,1.4-0.9h2.6c1.1,0.3,2,0.3,2.6,0.3h3.1h3.7c0.3,0,1.1,0,2.3-0.3c0.9,0,1.7-0.3,2-0.3
		c0.6,0,0.9,0.3,0.9,0.6c0,0.6-0.3,0.9-1.1,0.9c-3.1,0.9-4,2.3-4,7.4v2.6v19.9c0,7.1,0.9,11.4,3.1,14.5c2.8,4,8.3,6.3,14.8,6.3
		c7.4,0,13.1-2.6,15.9-7.4c1.7-2.8,2.8-8.3,2.8-13.1C53.6,206.2,53.6,187.4,53.6,187.4z"/>
	<path class="st2" d="M165.7,246.6c16.2,24.8,25.3,32.2,39,31.9c1.1,0,2,0.9,2,2c0,2.6-8.8,5.1-18.2,5.1c-15.6,0-27-7.7-40.1-27.6
		L115.9,209c0-0.3-0.9-1.4-1.7-2.8c-2.8-4.6-4.6-5.4-10-5.4H90c-6.3-0.3-7.1,0.3-7.4,4.8V246v6.8c-0.9,17.9,5.4,24.8,23.6,26.5
		c3.1,0.6,4.8,1.4,4.8,2.8c0,1.7-2,2.6-4,2.6c-1.7,0-4.6-0.3-8-0.6c-2.8-0.6-16.8-0.9-29-0.9c-6.3,0-13.1,0.3-17.4,0.9
		c-2.6,0.3-6,0.6-6.5,0.6c-2.3,0-3.4-0.9-3.4-2.6s0.9-2,3.1-2.6C61,275,63,270.8,63,240.9v-87.3c0.3-36.4-1.4-40.1-20.5-42.7
		c-2.6-0.6-4.3-2-4.3-3.1c0-1.7,1.7-2.6,4.6-2.6c0.9,0,4.8,0.3,9.1,0.6c2.6,0.3,6,0.3,10.8,0.3c6.5,0,6.8,0,21.1-1.1
		c6.5-0.3,13.4-0.6,19.3-0.6c20.5,0,33,3.1,43.2,10.8c10,7.4,15.9,19.9,15.9,33.6c0,19.1-11.1,34.4-32.2,45L165.7,246.6z
		 M106.5,190.8c22.5,0,36.4-13.4,36.4-34.7c0-12.2-5.7-25-14.5-32.4c-7.4-6.3-20.5-10.5-32.4-10.5c-6,0-9.7,1.4-11.7,4
		c-1.7,2-1.7,3.1-1.7,11.9v52.4c0.3,8.5,0.9,9.1,9.4,9.4H106.5z"/>
	<path class="st1" d="M199.6,189.7l0.3,0.9c0,0.3-0.3,0.9-0.9,0.9c-0.3,0-0.6-0.3-1.4-1.7c-4.8-8.8-11.7-13.1-20.2-13.1
		c-13.4,0-21.3,8.8-21.3,23.3c0,16.2,9.7,27.9,23,27.9c4.6,0,8.8-1.4,12.8-3.7c3.1-2,5.7-4.6,6.8-7.1c0.9-2,1.1-2,1.4-2
		s0.6,0.3,0.6,0.9c0,0.3,0,0.3-0.3,1.4l-0.9,4.8c-0.3,1.7-0.3,1.7-1.7,2.6c-5.7,4-12.8,6-19.9,6c-8,0-14.8-2.3-19.3-6.3
		c-5.7-4.8-9.1-12.8-9.1-21.3c0-16.5,11.9-28.5,28.5-28.5c5.1,0,11.1,1.4,15.1,3.7c2,1.1,2.6,1.4,2.8,1.4c0.3,0,0.3,0,0.6-0.3
		c0.6-0.3,0.9-0.6,1.1-0.6c0.3,0,0.6,0.3,0.9,1.4L199.6,189.7z"/>
	<path class="st1" d="M242.2,199.6c2.6,0,2.8-0.3,2.6-2.8v-12.5c0.3-5.1-1.1-7.1-4.8-8c-0.9-0.3-1.1-0.3-1.1-0.9
		c0-0.3,0.3-0.9,0.9-0.9s1.4,0,2.6,0.3c0.9,0,4.6,0.3,5.4,0.3c1.7,0,5.4-0.3,6-0.3c0.6,0,1.1-0.3,1.4-0.3c0.6,0,0.9,0.3,0.9,0.9
		c0,0.6,0,0.6-2.6,1.1c-2,0.9-3.1,2.8-2.8,6.8v36.7c-0.3,5.1,1.4,7.4,5.7,8c0.9,0,1.4,0.3,1.4,0.9c0,0.6-0.6,0.9-1.1,0.9
		c-0.3,0-1.1,0-2-0.3s-1.7-0.3-7.1-0.3h-2.8c-0.9,0-1.7,0-2,0l-2.6,0.3h-0.3c-0.6,0-0.9-0.3-0.9-0.9c0-0.6,0.3-0.9,1.4-0.9
		c3.4-0.9,4.3-2.3,4.3-8.3V205c0-2.6,0-2.6-2.8-2.6h-23c-3.1,0-3.4,0.3-3.4,2.8v12.8c-0.3,6.8,1.1,8.8,6,9.4
		c0.9,0.3,1.4,0.6,1.4,0.9c0,0.6-0.6,0.9-1.1,0.9c-0.3,0-1.1,0-2-0.3c-0.6,0-5.4-0.3-8-0.3c-1.4,0-4.3,0-5.1,0.3
		c-1.1,0-2.3,0.3-2.6,0.3c-0.6,0-0.9-0.3-0.9-0.9c0-0.9,0.3-0.9,2.8-1.4c2.3-0.9,3.1-3.4,2.8-10.5v-31.6c0.3-6-1.4-8.3-6-8.5
		c-0.9-0.3-1.1-0.3-1.1-0.9c0-0.6,0.3-0.9,1.1-0.9c0.6,0,1.4,0,2.3,0.3c0.6,0,6.5,0.3,7.4,0.3c1.4,0,4-0.3,5.1-0.3
		c0.9,0,1.4-0.3,1.7-0.3c0.6,0,1.1,0.3,1.1,0.9c0,0.6-0.3,0.6-2.6,1.4c-2.6,1.1-3.1,2.6-2.8,6.8v12.8c0,2.8,0.3,3.1,3.4,3.1
		C218.3,199.6,242.2,199.6,242.2,199.6z"/>
	<g>
		<g>
			<path d="M-88.4,247.4v7.1h-1.1v-15.6h5.1c1.7,0,2.8,0.3,3.7,1.1c0.9,0.9,1.4,1.7,1.4,3.1c0,0.9-0.3,1.7-0.6,2.3
				c-0.6,0.6-1.1,1.1-2,1.4c0.9,0.3,1.7,0.6,2,1.4c0.3,0.6,0.6,1.4,0.6,2.3v1.4c0,0.6,0,0.9,0.3,1.4c0,0.3,0.3,0.6,0.6,0.9v0.3h-1.1
				c-0.3-0.3-0.6-0.6-0.6-1.1c0-0.6-0.3-0.9-0.3-1.4v-1.4c0-0.9-0.3-1.7-0.9-2.3c-0.6-0.6-1.4-0.9-2.6-0.9H-88.4z M-88.4,246.3h3.7
				c1.4,0,2.3-0.3,3.1-0.9c0.6-0.6,0.9-1.4,0.9-2.3c0-1.1-0.3-1.7-0.9-2.3c-0.6-0.6-1.7-0.9-2.8-0.9h-4V246.3z"/>
			<path d="M-66.5,246.9h-7.4v6.5h8.3v1.1h-9.7v-15.6h9.7v1.1h-8.3v6h7.4V246.9z"/>
			<path d="M-60.8,248v6.5h-1.1v-15.6h5.1c1.7,0,2.8,0.3,3.7,1.1c0.9,0.9,1.4,2,1.4,3.4s-0.6,2.6-1.4,3.4c-0.9,0.9-2,1.1-3.7,1.1
				H-60.8z M-60.8,246.9h4c1.1,0,2.3-0.3,2.8-0.9c0.6-0.6,0.9-1.4,0.9-2.6c0-1.1-0.3-1.7-0.9-2.6c-0.6-0.6-1.7-0.9-2.8-0.9h-4V246.9
				z"/>
			<path d="M-39.7,246.9h-7.4v6.5h8.3v1.1h-9.7v-15.6h9.7v1.1h-8.3v6h7.4V246.9z"/>
			<path d="M-24.4,254.5h-1.1l-8.5-13.4l0,0v13.4h-1.1v-15.6h0.9l8.5,13.4l0,0v-13.4h1.1v15.6H-24.4z"/>
			<path d="M-9.6,239.7h-5.1v14.5h-1.1v-14.5h-5.1v-1.1h11.7v1.1H-9.6z"/>
			<path d="M1.5,250h-6.8l-1.7,4.3h-1.4l5.7-15.6h1.1l5.7,15.6H2.7L1.5,250z M-5,248.9h6.3l-3.1-8.5l0,0L-5,248.9z"/>
			<path d="M18.6,254.5h-1.1l-8.5-13.4l0,0v13.4H7.8v-15.6h1.1l8.5,13.4l0,0v-13.4h1.1V254.5z"/>
			<path d="M33.4,249.4L33.4,249.4c0,1.7-0.6,2.8-1.7,3.7c-0.9,0.9-2.3,1.4-3.7,1.4c-1.7,0-3.1-0.6-4-2c-1.1-1.1-1.4-2.8-1.4-4.8
				v-2.6c0-2,0.6-3.7,1.4-4.8c1.1-1.1,2.3-2,4-2c1.7,0,2.8,0.6,4,1.4c0.9,0.9,1.4,2,1.7,3.7l0,0h-1.1c-0.3-1.4-0.6-2.3-1.4-2.8
				c-0.6-0.6-1.7-1.1-2.8-1.1c-1.4,0-2.3,0.6-3.1,1.7c-0.9,1.1-1.1,2.3-1.1,4v2.6c0,1.7,0.3,3.1,1.1,4c0.9,1.1,2,1.7,3.1,1.7
				c1.4,0,2.3-0.3,2.8-1.1c0.6-0.6,1.1-1.7,1.4-3.1h0.9V249.4z"/>
			<path d="M45.9,246.9h-7.4v6.5h8.3v1.1h-9.7v-15.6h9.7v1.1h-8.3v6h7.4V246.9z"/>
		</g>
		<g>
			<path class="st2" d="M-88.4,247.4v7.1h-1.1v-15.6h5.1c1.7,0,2.8,0.3,3.7,1.1c0.9,0.9,1.4,1.7,1.4,3.1c0,0.9-0.3,1.7-0.6,2.3
				c-0.6,0.6-1.1,1.1-2,1.4c0.9,0.3,1.7,0.6,2,1.4c0.3,0.6,0.6,1.4,0.6,2.3v1.4c0,0.6,0,0.9,0.3,1.4c0,0.3,0.3,0.6,0.6,0.9v0.3h-1.1
				c-0.3-0.3-0.6-0.6-0.6-1.1c0-0.6-0.3-0.9-0.3-1.4v-1.4c0-0.9-0.3-1.7-0.9-2.3c-0.6-0.6-1.4-0.9-2.6-0.9H-88.4z M-88.4,246.3h3.7
				c1.4,0,2.3-0.3,3.1-0.9c0.6-0.6,0.9-1.4,0.9-2.3c0-1.1-0.3-1.7-0.9-2.3c-0.6-0.6-1.7-0.9-2.8-0.9h-4V246.3z"/>
			<path class="st2" d="M-66.5,246.9h-7.4v6.5h8.3v1.1h-9.7v-15.6h9.7v1.1h-8.3v6h7.4V246.9z"/>
			<path class="st2" d="M-60.8,248v6.5h-1.1v-15.6h5.1c1.7,0,2.8,0.3,3.7,1.1c0.9,0.9,1.4,2,1.4,3.4s-0.6,2.6-1.4,3.4
				c-0.9,0.9-2,1.1-3.7,1.1H-60.8z M-60.8,246.9h4c1.1,0,2.3-0.3,2.8-0.9c0.6-0.6,0.9-1.4,0.9-2.6c0-1.1-0.3-1.7-0.9-2.6
				c-0.6-0.6-1.7-0.9-2.8-0.9h-4V246.9z"/>
			<path class="st2" d="M-39.7,246.9h-7.4v6.5h8.3v1.1h-9.7v-15.6h9.7v1.1h-8.3v6h7.4V246.9z"/>
			<path class="st2" d="M-24.4,254.5h-1.1l-8.5-13.4l0,0v13.4h-1.1v-15.6h0.9l8.5,13.4l0,0v-13.4h1.1v15.6H-24.4z"/>
			<path class="st2" d="M-9.6,239.7h-5.1v14.5h-1.1v-14.5h-5.1v-1.1h11.7v1.1H-9.6z"/>
			<path class="st2" d="M1.5,250h-6.8l-1.7,4.3h-1.4l5.7-15.6h1.1l5.7,15.6H2.7L1.5,250z M-5,248.9h6.3l-3.1-8.5l0,0L-5,248.9z"/>
			<path class="st2" d="M18.6,254.5h-1.1l-8.5-13.4l0,0v13.4H7.8v-15.6h1.1l8.5,13.4l0,0v-13.4h1.1V254.5z"/>
			<path class="st2" d="M33.4,249.4L33.4,249.4c0,1.7-0.6,2.8-1.7,3.7c-0.9,0.9-2.3,1.4-3.7,1.4c-1.7,0-3.1-0.6-4-2
				c-1.1-1.1-1.4-2.8-1.4-4.8v-2.6c0-2,0.6-3.7,1.4-4.8c1.1-1.1,2.3-2,4-2c1.7,0,2.8,0.6,4,1.4c0.9,0.9,1.4,2,1.7,3.7l0,0h-1.1
				c-0.3-1.4-0.6-2.3-1.4-2.8c-0.6-0.6-1.7-1.1-2.8-1.1c-1.4,0-2.3,0.6-3.1,1.7c-0.9,1.1-1.1,2.3-1.1,4v2.6c0,1.7,0.3,3.1,1.1,4
				c0.9,1.1,2,1.7,3.1,1.7c1.4,0,2.3-0.3,2.8-1.1c0.6-0.6,1.1-1.7,1.4-3.1h0.9V249.4z"/>
			<path class="st2" d="M45.9,246.9h-7.4v6.5h8.3v1.1h-9.7v-15.6h9.7v1.1h-8.3v6h7.4V246.9z"/>
		</g>
	</g>
	<g>
		<g>
			<path d="M181.1,245.7c-0.6-0.9-1.1-1.4-1.4-2c-0.3-0.6-0.6-1.1-0.6-2c0-1.1,0.3-2,0.9-2.8c0.6-0.6,1.4-0.9,2.8-0.9
				c1.1,0,2,0.3,2.6,0.9c0.6,0.6,0.9,1.4,0.9,2.3c0,0.6-0.3,1.1-0.6,1.7c-0.3,0.6-0.9,0.9-1.4,1.4l-1.7,1.4l4.6,5.4
				c0.3-0.6,0.6-1.1,0.9-1.7c0.3-0.6,0.3-1.4,0.3-2.3h1.1c0,0.9,0,2-0.3,2.6c-0.3,0.6-0.6,1.4-1.1,2.3l2,2.6l0,0h-1.4l-1.4-1.7
				c-0.6,0.6-1.4,1.1-2,1.4c-0.9,0.3-1.4,0.6-2.6,0.6c-1.4,0-2.8-0.3-3.7-1.1c-0.9-0.9-1.4-2-1.4-3.1c0-0.9,0.3-1.7,0.9-2.6
				C179.1,247.1,179.6,246.6,181.1,245.7L181.1,245.7z M182.8,253.7c0.6,0,1.4,0,2-0.3s1.1-0.6,1.7-1.1l-4.6-5.4l0,0l0,0l-0.6,0.3
				c-0.9,0.9-1.4,1.4-1.7,2c-0.3,0.6-0.6,1.1-0.6,1.7c0,0.9,0.3,1.7,0.9,2.3C180.5,253.4,181.3,253.7,182.8,253.7z M180.5,241.7
				c0,0.6,0,1.1,0.3,1.7c0.3,0.6,0.6,1.1,1.1,1.7l2-1.4c0.6-0.3,0.9-0.6,0.9-1.1c0.3-0.3,0.3-0.9,0.3-1.1c0-0.6-0.3-1.1-0.6-1.4
				c-0.3-0.3-0.9-0.6-1.7-0.6c-0.9,0-1.4,0.3-1.7,0.9C180.8,240.3,180.5,240.9,180.5,241.7z"/>
			<path d="M200.7,247.1v7.4h-1.4V238h5.4c1.7,0,3.1,0.3,4,1.1c0.9,0.9,1.4,2,1.4,3.4c0,0.9-0.3,1.7-0.9,2.3c-0.6,0.6-1.1,1.1-2,1.4
				c1.1,0.3,1.7,0.9,2.3,1.4s0.6,1.4,0.6,2.6v1.7c0,0.6,0,0.9,0.3,1.4c0,0.3,0.3,0.9,0.6,1.1v0.3h-1.4c-0.3-0.3-0.6-0.6-0.6-1.1
				c0-0.6-0.3-1.1-0.3-1.4v-1.4c0-1.1-0.3-1.7-0.9-2.3c-0.6-0.6-1.4-0.9-2.6-0.9h-4.6V247.1z M200.7,246h4c1.4,0,2.6-0.3,3.1-0.9
				c0.6-0.6,1.1-1.4,1.1-2.6c0-1.1-0.3-2-1.1-2.6c-0.6-0.6-1.7-0.9-3.1-0.9h-4.3v6.8H200.7z"/>
			<path d="M224,246.6h-7.7v6.8h8.8v1.1h-10.2V238h10.2v1.1h-8.8v6.3h7.7V246.6z"/>
			<path d="M238,250.6c0-0.9-0.3-1.7-0.9-2.3c-0.6-0.6-1.7-1.1-3.4-1.4c-1.7-0.6-3.1-1.1-4-1.7c-0.9-0.9-1.4-1.7-1.4-2.8
				s0.6-2.3,1.4-3.1c1.1-0.9,2.3-1.1,4-1.1c1.7,0,3.1,0.6,4,1.4c1.1,0.9,1.4,2,1.4,3.4l0,0H238c0-1.1-0.3-2-1.1-2.8
				c-0.9-0.9-1.7-1.1-3.1-1.1c-1.4,0-2.3,0.3-3.1,0.9c-0.9,0.6-1.1,1.4-1.1,2.3s0.3,1.4,1.1,2c0.6,0.6,1.7,1.1,3.4,1.4
				c1.7,0.6,3.1,1.1,4,2c0.9,0.9,1.4,1.7,1.4,3.1s-0.6,2.3-1.7,3.1c-1.1,0.9-2.3,1.1-4,1.1c-1.7,0-3.1-0.3-4.3-1.1
				c-1.1-0.9-1.7-2-1.7-3.7l0,0h1.1c0,1.4,0.6,2.3,1.4,2.8c0.9,0.6,2,0.9,3.4,0.9s2.3-0.3,3.1-0.9C237.4,252.3,238,251.7,238,250.6z
				"/>
			<path d="M253.6,239.2h-5.7v15.4h-1.4v-15.4h-5.7V238h12.5v1.1H253.6z"/>
		</g>
		<g>
			<path class="st2" d="M181.1,245.7c-0.6-0.9-1.1-1.4-1.4-2c-0.3-0.6-0.6-1.1-0.6-2c0-1.1,0.3-2,0.9-2.8c0.6-0.6,1.4-0.9,2.8-0.9
				c1.1,0,2,0.3,2.6,0.9c0.6,0.6,0.9,1.4,0.9,2.3c0,0.6-0.3,1.1-0.6,1.7c-0.3,0.6-0.9,0.9-1.4,1.4l-1.7,1.4l4.6,5.4
				c0.3-0.6,0.6-1.1,0.9-1.7c0.3-0.6,0.3-1.4,0.3-2.3h1.1c0,0.9,0,2-0.3,2.6c-0.3,0.6-0.6,1.4-1.1,2.3l2,2.6l0,0h-1.4l-1.4-1.7
				c-0.6,0.6-1.4,1.1-2,1.4c-0.9,0.3-1.4,0.6-2.6,0.6c-1.4,0-2.8-0.3-3.7-1.1c-0.9-0.9-1.4-2-1.4-3.1c0-0.9,0.3-1.7,0.9-2.6
				C179.1,247.1,179.6,246.6,181.1,245.7L181.1,245.7z M182.8,253.7c0.6,0,1.4,0,2-0.3s1.1-0.6,1.7-1.1l-4.6-5.4l0,0l0,0l-0.6,0.3
				c-0.9,0.9-1.4,1.4-1.7,2c-0.3,0.6-0.6,1.1-0.6,1.7c0,0.9,0.3,1.7,0.9,2.3C180.5,253.4,181.3,253.7,182.8,253.7z M180.5,241.7
				c0,0.6,0,1.1,0.3,1.7c0.3,0.6,0.6,1.1,1.1,1.7l2-1.4c0.6-0.3,0.9-0.6,0.9-1.1c0.3-0.3,0.3-0.9,0.3-1.1c0-0.6-0.3-1.1-0.6-1.4
				c-0.3-0.3-0.9-0.6-1.7-0.6c-0.9,0-1.4,0.3-1.7,0.9C180.8,240.3,180.5,240.9,180.5,241.7z"/>
			<path class="st2" d="M200.7,247.1v7.4h-1.4V238h5.4c1.7,0,3.1,0.3,4,1.1c0.9,0.9,1.4,2,1.4,3.4c0,0.9-0.3,1.7-0.9,2.3
				c-0.6,0.6-1.1,1.1-2,1.4c1.1,0.3,1.7,0.9,2.3,1.4s0.6,1.4,0.6,2.6v1.7c0,0.6,0,0.9,0.3,1.4c0,0.3,0.3,0.9,0.6,1.1v0.3h-1.4
				c-0.3-0.3-0.6-0.6-0.6-1.1c0-0.6-0.3-1.1-0.3-1.4v-1.4c0-1.1-0.3-1.7-0.9-2.3c-0.6-0.6-1.4-0.9-2.6-0.9h-4.6V247.1z M200.7,246h4
				c1.4,0,2.6-0.3,3.1-0.9c0.6-0.6,1.1-1.4,1.1-2.6c0-1.1-0.3-2-1.1-2.6c-0.6-0.6-1.7-0.9-3.1-0.9h-4.3v6.8H200.7z"/>
			<path class="st2" d="M224,246.6h-7.7v6.8h8.8v1.1h-10.2V238h10.2v1.1h-8.8v6.3h7.7V246.6z"/>
			<path class="st2" d="M238,250.6c0-0.9-0.3-1.7-0.9-2.3c-0.6-0.6-1.7-1.1-3.4-1.4c-1.7-0.6-3.1-1.1-4-1.7
				c-0.9-0.9-1.4-1.7-1.4-2.8s0.6-2.3,1.4-3.1c1.1-0.9,2.3-1.1,4-1.1c1.7,0,3.1,0.6,4,1.4c1.1,0.9,1.4,2,1.4,3.4l0,0H238
				c0-1.1-0.3-2-1.1-2.8c-0.9-0.9-1.7-1.1-3.1-1.1c-1.4,0-2.3,0.3-3.1,0.9c-0.9,0.6-1.1,1.4-1.1,2.3s0.3,1.4,1.1,2
				c0.6,0.6,1.7,1.1,3.4,1.4c1.7,0.6,3.1,1.1,4,2c0.9,0.9,1.4,1.7,1.4,3.1s-0.6,2.3-1.7,3.1c-1.1,0.9-2.3,1.1-4,1.1
				c-1.7,0-3.1-0.3-4.3-1.1c-1.1-0.9-1.7-2-1.7-3.7l0,0h1.1c0,1.4,0.6,2.3,1.4,2.8c0.9,0.6,2,0.9,3.4,0.9s2.3-0.3,3.1-0.9
				C237.4,252.3,238,251.7,238,250.6z"/>
			<path class="st2" d="M253.6,239.2h-5.7v15.4h-1.4v-15.4h-5.7V238h12.5v1.1H253.6z"/>
		</g>
	</g>
	<g>
		<g>
			<path d="M-53.7,165.5h-1.1v-13.1h1.1V165.5z"/>
			<path d="M-42.6,162.1c0-0.9-0.3-1.4-0.9-1.7c-0.6-0.6-1.4-0.9-2.6-1.1c-1.4-0.3-2.3-0.9-3.1-1.4c-0.6-0.6-1.1-1.4-1.1-2.3
				c0-1.1,0.3-1.7,1.1-2.6c0.9-0.6,1.7-0.9,3.1-0.9s2.3,0.3,3.1,1.1c0.9,0.9,1.1,1.7,1.1,2.8l0,0h-0.9c0-0.9-0.3-1.7-0.9-2.3
				c-0.6-0.6-1.4-0.9-2.3-0.9c-1.1,0-1.7,0.3-2.3,0.6c-0.6,0.6-0.9,1.1-0.9,1.7s0.3,1.1,0.9,1.7c0.6,0.6,1.4,0.9,2.6,1.1
				c1.4,0.3,2.3,0.9,3.1,1.4c0.6,0.6,1.1,1.4,1.1,2.6s-0.3,2-1.1,2.6c-0.9,0.6-1.7,0.9-3.1,0.9c-1.1,0-2.3-0.3-3.1-0.9
				c-0.9-0.6-1.4-1.7-1.4-2.8l0,0h0.9c0,1.1,0.3,1.7,1.1,2.3c0.9,0.6,1.7,0.9,2.6,0.9c0.9,0,1.7-0.3,2.3-0.6
				C-42.9,163.5-42.6,162.9-42.6,162.1z"/>
			<path d="M-32,161.8h-5.7l-1.4,3.7H-40l4.8-13.1h0.9l4.8,13.1h-1.1L-32,161.8z M-37.4,160.9h5.1l-2.6-7.1l0,0L-37.4,160.9z"/>
			<path d="M-26.1,165.5h-1.1v-13.1h1.1V165.5z"/>
			<path d="M-15.5,161.8h-5.7l-1.4,3.7h-1.1l4.8-13.1h0.9l4.8,13.1h-1.1L-15.5,161.8z M-20.9,160.9h5.1l-2.6-7.1l0,0L-20.9,160.9z"
				/>
			<path d="M-1.6,165.5h-1.1v-6h-7.1v6H-11v-13.1h1.1v6.3h7.1v-6.3h1.1V165.5z"/>
			<path d="M8.6,158.4h1.1c0.9,0,1.7-0.3,2-0.9c0.6-0.6,0.6-1.1,0.6-1.7c0-0.9-0.3-1.4-0.6-2c-0.6-0.6-1.1-0.9-2-0.9
				c-0.9,0-1.4,0.3-2,0.9c-0.6,0.6-0.9,1.1-0.9,2H6.1l0,0c0-1.1,0.3-2,1.1-2.6c0.6-0.6,1.7-1.1,2.6-1.1c1.1,0,2,0.3,2.6,0.9
				c0.6,0.6,0.9,1.4,0.9,2.6c0,0.6-0.3,1.1-0.6,1.7c-0.3,0.6-0.9,0.9-1.4,1.1c0.9,0.3,1.4,0.6,1.7,1.1c0.3,0.6,0.6,1.1,0.6,2
				c0,1.1-0.3,2-1.1,2.8c-0.9,0.6-1.7,1.1-2.8,1.1s-2-0.3-2.8-0.9c-0.9-0.6-1.1-1.4-1.1-2.8l0,0h0.9c0,0.9,0.3,1.4,0.9,2
				c0.6,0.6,1.1,0.9,2.3,0.9c0.9,0,1.7-0.3,2-0.9c0.6-0.6,0.9-1.1,0.9-2c0-0.9-0.3-1.7-0.9-2c-0.6-0.6-1.1-0.6-2.3-0.6H8.1v-0.9H8.6
				z"/>
			<path d="M24.3,160.4c0,1.7-0.3,3.1-1.1,4c-0.6,0.9-1.7,1.4-2.8,1.4c-1.1,0-2.3-0.6-2.8-1.4c-0.6-0.9-1.1-2.3-1.1-4v-2.8
				c0-1.7,0.3-3.1,1.1-4c0.6-0.9,1.7-1.4,2.8-1.4c1.1,0,2.3,0.6,2.8,1.4c0.6,0.9,1.1,2.3,1.1,4V160.4z M23.2,157.2
				c0-1.4-0.3-2.3-0.9-3.1c-0.6-0.9-1.1-1.1-2.3-1.1c-0.9,0-1.7,0.3-2.3,1.1c-0.6,0.9-0.9,1.7-0.9,3.1v3.4c0,1.4,0.3,2.3,0.9,3.1
				c0.6,0.9,1.1,1.1,2.3,1.1c0.9,0,1.7-0.3,2.3-1.1c0.6-0.9,0.9-1.7,0.9-3.1V157.2z"/>
			<path d="M28.3,157.2h-1.1v-1.4h1.1V157.2z M28.3,165.5h-1.1v-1.4h1.1V165.5z"/>
			<path d="M35.7,165.5h-1.1v-11.9l-3.1,0.3V153l4.3-0.9V165.5z"/>
			<path d="M41.6,159.5l0.6-7.1h6v1.1h-5.1l-0.6,4.6c0.3-0.3,0.6-0.6,1.1-0.6c0.3-0.3,0.9-0.3,1.4-0.3c1.1,0,2,0.3,2.6,1.1
				c0.6,0.9,0.9,1.7,0.9,3.1s-0.3,2.3-0.9,3.1c-0.6,0.9-1.7,1.1-2.8,1.1c-1.1,0-2-0.3-2.6-0.9c-0.6-0.6-1.1-1.4-0.9-2.6l0,0h0.9
				c0,0.9,0.3,1.4,0.9,2c0.6,0.6,1.1,0.6,2,0.6c0.9,0,1.7-0.3,2-0.9c0.6-0.6,0.6-1.4,0.6-2.6c0-0.9-0.3-1.7-0.6-2.3
				c-0.6-0.6-1.1-0.9-2-0.9c-0.9,0-1.4,0-1.7,0.3c-0.3,0.3-0.9,0.6-0.9,1.1L41.6,159.5z"/>
		</g>
		<g>
			<path class="st2" d="M-53.7,165.5h-1.1v-13.1h1.1V165.5z"/>
			<path class="st2" d="M-42.6,162.1c0-0.9-0.3-1.4-0.9-1.7c-0.6-0.6-1.4-0.9-2.6-1.1c-1.4-0.3-2.3-0.9-3.1-1.4
				c-0.6-0.6-1.1-1.4-1.1-2.3c0-1.1,0.3-1.7,1.1-2.6c0.9-0.6,1.7-0.9,3.1-0.9s2.3,0.3,3.1,1.1c0.9,0.9,1.1,1.7,1.1,2.8l0,0h-0.9
				c0-0.9-0.3-1.7-0.9-2.3c-0.6-0.6-1.4-0.9-2.3-0.9c-1.1,0-1.7,0.3-2.3,0.6c-0.6,0.6-0.9,1.1-0.9,1.7s0.3,1.1,0.9,1.7
				c0.6,0.6,1.4,0.9,2.6,1.1c1.4,0.3,2.3,0.9,3.1,1.4c0.6,0.6,1.1,1.4,1.1,2.6s-0.3,2-1.1,2.6c-0.9,0.6-1.7,0.9-3.1,0.9
				c-1.1,0-2.3-0.3-3.1-0.9c-0.9-0.6-1.4-1.7-1.4-2.8l0,0h0.9c0,1.1,0.3,1.7,1.1,2.3c0.9,0.6,1.7,0.9,2.6,0.9c0.9,0,1.7-0.3,2.3-0.6
				C-42.9,163.5-42.6,162.9-42.6,162.1z"/>
			<path class="st2" d="M-32,161.8h-5.7l-1.4,3.7H-40l4.8-13.1h0.9l4.8,13.1h-1.1L-32,161.8z M-37.4,160.9h5.1l-2.6-7.1l0,0
				L-37.4,160.9z"/>
			<path class="st2" d="M-26.1,165.5h-1.1v-13.1h1.1V165.5z"/>
			<path class="st2" d="M-15.5,161.8h-5.7l-1.4,3.7h-1.1l4.8-13.1h0.9l4.8,13.1h-1.1L-15.5,161.8z M-20.9,160.9h5.1l-2.6-7.1l0,0
				L-20.9,160.9z"/>
			<path class="st2" d="M-1.6,165.5h-1.1v-6h-7.1v6H-11v-13.1h1.1v6.3h7.1v-6.3h1.1V165.5z"/>
			<path class="st2" d="M8.6,158.4h1.1c0.9,0,1.7-0.3,2-0.9c0.6-0.6,0.6-1.1,0.6-1.7c0-0.9-0.3-1.4-0.6-2c-0.6-0.6-1.1-0.9-2-0.9
				c-0.9,0-1.4,0.3-2,0.9c-0.6,0.6-0.9,1.1-0.9,2H6.1l0,0c0-1.1,0.3-2,1.1-2.6c0.6-0.6,1.7-1.1,2.6-1.1c1.1,0,2,0.3,2.6,0.9
				c0.6,0.6,0.9,1.4,0.9,2.6c0,0.6-0.3,1.1-0.6,1.7c-0.3,0.6-0.9,0.9-1.4,1.1c0.9,0.3,1.4,0.6,1.7,1.1c0.3,0.6,0.6,1.1,0.6,2
				c0,1.1-0.3,2-1.1,2.8c-0.9,0.6-1.7,1.1-2.8,1.1s-2-0.3-2.8-0.9c-0.9-0.6-1.1-1.4-1.1-2.8l0,0h0.9c0,0.9,0.3,1.4,0.9,2
				c0.6,0.6,1.1,0.9,2.3,0.9c0.9,0,1.7-0.3,2-0.9c0.6-0.6,0.9-1.1,0.9-2c0-0.9-0.3-1.7-0.9-2c-0.6-0.6-1.1-0.6-2.3-0.6H8.1v-0.9H8.6
				z"/>
			<path class="st2" d="M24.3,160.4c0,1.7-0.3,3.1-1.1,4c-0.6,0.9-1.7,1.4-2.8,1.4c-1.1,0-2.3-0.6-2.8-1.4c-0.6-0.9-1.1-2.3-1.1-4
				v-2.8c0-1.7,0.3-3.1,1.1-4c0.6-0.9,1.7-1.4,2.8-1.4c1.1,0,2.3,0.6,2.8,1.4c0.6,0.9,1.1,2.3,1.1,4V160.4z M23.2,157.2
				c0-1.4-0.3-2.3-0.9-3.1c-0.6-0.9-1.1-1.1-2.3-1.1c-0.9,0-1.7,0.3-2.3,1.1c-0.6,0.9-0.9,1.7-0.9,3.1v3.4c0,1.4,0.3,2.3,0.9,3.1
				c0.6,0.9,1.1,1.1,2.3,1.1c0.9,0,1.7-0.3,2.3-1.1c0.6-0.9,0.9-1.7,0.9-3.1V157.2z"/>
			<path class="st2" d="M28.3,157.2h-1.1v-1.4h1.1V157.2z M28.3,165.5h-1.1v-1.4h1.1V165.5z"/>
			<path class="st2" d="M35.7,165.5h-1.1v-11.9l-3.1,0.3V153l4.3-0.9V165.5z"/>
			<path class="st2" d="M41.6,159.5l0.6-7.1h6v1.1h-5.1l-0.6,4.6c0.3-0.3,0.6-0.6,1.1-0.6c0.3-0.3,0.9-0.3,1.4-0.3
				c1.1,0,2,0.3,2.6,1.1c0.6,0.9,0.9,1.7,0.9,3.1s-0.3,2.3-0.9,3.1c-0.6,0.9-1.7,1.1-2.8,1.1c-1.1,0-2-0.3-2.6-0.9
				c-0.6-0.6-1.1-1.4-0.9-2.6l0,0h0.9c0,0.9,0.3,1.4,0.9,2c0.6,0.6,1.1,0.6,2,0.6c0.9,0,1.7-0.3,2-0.9c0.6-0.6,0.6-1.4,0.6-2.6
				c0-0.9-0.3-1.7-0.6-2.3c-0.6-0.6-1.1-0.9-2-0.9c-0.9,0-1.4,0-1.7,0.3c-0.3,0.3-0.9,0.6-0.9,1.1L41.6,159.5z"/>
		</g>
	</g>
</g>
</svg>
